<?xml version="1.0" standalone="no"?><!DOCTYPE svg PUBLIC "-//W3C//DTD SVG 1.1//EN" "http://www.w3.org/Graphics/SVG/1.1/DTD/svg11.dtd"><svg class="icon" width="200px" height="200.00px" viewBox="0 0 1024 1024" version="1.1" xmlns="http://www.w3.org/2000/svg"><path fill="#19be6b" d="M195.648 448c35.392 0 64 28.608 64 64s-28.608 64-64 64-64-28.608-64-64S160.256 448 195.648 448L195.648 448zM508.352 448c-35.392 0-64 28.608-64 64s28.608 64 64 64 64-28.608 64-64S543.744 448 508.352 448L508.352 448zM828.352 448c-35.392 0-64 28.608-64 64s28.608 64 64 64 64-28.608 64-64S863.744 448 828.352 448L828.352 448z" /></svg>